<?xml version="1.0" encoding="UTF-8"?>
<svg xmlns="http://www.w3.org/2000/svg" viewBox="0 0 660 210" role="img" aria-labelledby="costT costD">
  <title id="costT">Kosten pro Tag (14 Tage)</title>
  <desc id="costD">Linie der taeglichen Kosten; bleibt 9 Tage nahe Basislinie, steigt ab Tag 10 auf das 7-Fache.</desc>
  <line x1="50" y1="180" x2="596" y2="180" stroke="#2a313c" stroke-width="1.5"/>
  <line x1="50" y1="20" x2="50" y2="180" stroke="#2a313c" stroke-width="1.5"/>
  <line x1="50" y1="168" x2="596" y2="168" stroke="#3ddc97" stroke-width="1.4" stroke-dasharray="5 4"/>
  <text x="600" y="171" fill="#3ddc97" font-size="10" font-family="monospace">7d</text>
  <polyline points="50,169 92,167 134,170 176,168 218,169 260,166 302,167 344,168 386,165 428,91 470,67 512,48 554,34 596,22" fill="none" stroke="#4f9cf9" stroke-width="2.4"/>
  <circle cx="428" cy="91" r="4" fill="#ff6b6b"/>
  <line x1="428" y1="91" x2="428" y2="36" stroke="#ff6b6b" stroke-width="1" stroke-dasharray="3 3"/>
  <text x="436" y="40" fill="#ff6b6b" font-size="11" font-family="monospace">Spike ab Tag 10</text>
  <text x="50" y="208" fill="#9aa4b2" font-size="10" font-family="monospace" text-anchor="middle">1</text>
  <text x="428" y="208" fill="#9aa4b2" font-size="10" font-family="monospace" text-anchor="middle">10</text>
  <text x="596" y="208" fill="#9aa4b2" font-size="10" font-family="monospace" text-anchor="middle">14</text>
  <text x="10" y="180" fill="#9aa4b2" font-size="10" font-family="monospace">0</text>
  <text x="4" y="32" fill="#9aa4b2" font-size="10" font-family="monospace">170</text>
  <text x="330" y="14" fill="#e6e9ef" font-size="12" text-anchor="middle">Kosten / Tag (14 Tage)</text>
</svg>
